<svg xmlns="http://www.w3.org/2000/svg" viewBox="0 0 640 360" shape-rendering="crispEdges">
  <!-- env_bar_bg_far: walls, ceiling, rear shelves. Native coords = blockout logical /3. Horizon y=120. -->
  <!-- palette: wd-palette-v1 only -->

  <rect x="0" y="0" width="640" height="360" fill="#262227"/><!-- soot_1 base -->

  <!-- ceiling: nicotine amber_0 + soot_1 corners, pendant halos -->
  <polygon points="0,0 640,0 560,50 80,50" fill="#57381c"/>

  <!-- rear wall x80-560 y50-207 -->
  <rect x="80" y="50" width="480" height="157" fill="#665a45"/><!-- cream_0 lower -->
  <rect x="80" y="50" width="480" height="54" fill="#8c7d5f"/><!-- cream_1 upper -->

  <!-- left wall -->
  <polygon points="0,0 80,50 80,207 0,360" fill="#665a45"/>
  <polygon points="0,0 80,50 80,80 0,64" fill="#8c7d5f"/>
  <!-- right wall -->
  <polygon points="640,0 560,50 560,207 640,360" fill="#665a45"/>
  <polygon points="640,0 560,50 560,80 640,64" fill="#8c7d5f"/>

  <!-- wainscot band (teal_1) with teal_0 baseboard, cream_0 chips -->
  <rect x="80" y="147" width="480" height="60" fill="#2a4540"/>
  <rect x="80" y="201" width="480" height="6" fill="#182a28"/>
  <polygon points="0,195 80,147 80,207 0,360" fill="#2a4540"/>
  <polygon points="640,195 560,147 560,207 640,360" fill="#2a4540"/>
  <rect x="300" y="147" width="4" height="3" fill="#665a45"/>
  <rect x="340" y="148" width="3" height="2" fill="#665a45"/>
  <rect x="430" y="147" width="4" height="2" fill="#665a45"/>
  <rect x="505" y="148" width="3" height="2" fill="#665a45"/>
  <rect x="18" y="183" width="4" height="3" fill="#665a45"/>
  <rect x="46" y="166" width="3" height="3" fill="#665a45"/>
  <rect x="598" y="171" width="4" height="3" fill="#665a45"/>

  <!-- fluorescent splashback + tube behind counter (cold work light) -->
  <rect x="85" y="100" width="160" height="47" fill="#416359"/><!-- teal_2 lit paint -->
  <rect x="90" y="150" width="148" height="2" fill="#3d7f8c"/><!-- cyan_1 tube -->
  <rect x="90" y="152" width="148" height="5" fill="#628072"/><!-- teal_3 glow on wainscot -->

  <!-- rear shelving x86-166: two boards, bottles as value shapes, no labels -->
  <g>
    <rect x="92" y="99" width="2" height="3" fill="#57381c"/>
    <rect x="91" y="102" width="4" height="10" fill="#57381c"/>
    <rect x="99" y="104" width="3" height="8" fill="#182a28"/>
    <rect x="107" y="98" width="2" height="3" fill="#262227"/>
    <rect x="106" y="101" width="4" height="11" fill="#262227"/>
    <rect x="114" y="104" width="4" height="8" fill="#855524"/>
    <rect x="121" y="102" width="3" height="10" fill="#57381c"/>
    <rect x="128" y="104" width="4" height="8" fill="#182a28"/>
    <rect x="138" y="98" width="2" height="3" fill="#57381c"/>
    <rect x="137" y="101" width="4" height="11" fill="#57381c"/>
    <rect x="145" y="104" width="3" height="8" fill="#262227"/>
    <rect x="152" y="103" width="4" height="9" fill="#855524"/>
    <rect x="91" y="102" width="1" height="10" fill="#628072"/>
    <rect x="128" y="104" width="1" height="8" fill="#628072"/>
    <rect x="152" y="103" width="1" height="9" fill="#628072"/>
    <rect x="86" y="112" width="80" height="3" fill="#654627"/>
    <rect x="86" y="115" width="80" height="1" fill="#2b1d12"/>
    <rect x="90" y="126" width="4" height="10" fill="#855524"/>
    <rect x="97" y="128" width="3" height="8" fill="#182a28"/>
    <rect x="104" y="125" width="4" height="11" fill="#57381c"/>
    <rect x="112" y="128" width="4" height="8" fill="#262227"/>
    <rect x="119" y="126" width="3" height="10" fill="#855524"/>
    <rect x="127" y="128" width="4" height="8" fill="#57381c"/>
    <rect x="134" y="125" width="4" height="11" fill="#182a28"/>
    <rect x="142" y="128" width="3" height="8" fill="#57381c"/>
    <rect x="150" y="126" width="4" height="10" fill="#262227"/>
    <rect x="104" y="125" width="1" height="11" fill="#628072"/>
    <rect x="150" y="126" width="1" height="10" fill="#628072"/>
    <rect x="86" y="136" width="80" height="3" fill="#654627"/>
    <rect x="86" y="139" width="80" height="1" fill="#2b1d12"/>
  </g>

  <!-- service corridor recess x233-292 -->
  <rect x="233" y="91" width="59" height="116" fill="#665a45"/>
  <rect x="247" y="102" width="33" height="105" fill="#262227"/>
  <rect x="244" y="99" width="39" height="3" fill="#654627"/>
  <rect x="244" y="102" width="3" height="105" fill="#654627"/>
  <rect x="280" y="102" width="3" height="105" fill="#654627"/>

  <!-- street entrance vestibule (door leaf lives in bg_mid) -->
  <polygon points="527,94 578,83 578,228 527,207" fill="#2a4540"/>
  <polygon points="572,84 578,83 578,228 572,222" fill="#182a28"/>
  <polygon points="537,107 569,99 569,218 537,207" fill="#131114"/>
  <polygon points="527,207 578,228 578,233 527,212" fill="#5a524e"/><!-- threshold step -->

  <!-- wall clock, face only (hands are DOM/SVG) -->
  <polygon points="201,72 209,72 213,76 213,84 209,88 201,88 197,84 197,76" fill="#3d383b"/>
  <polygon points="202,74 208,74 211,77 211,83 208,86 202,86 199,83 199,77" fill="#b2a17c"/>
  <rect x="204" y="79" width="2" height="2" fill="#3d383b"/>
  <rect x="204" y="76" width="1" height="3" fill="#3d383b"/>
  <rect x="206" y="80" width="2" height="1" fill="#3d383b"/>

  <!-- felt notice board with blank pinned papers -->
  <rect x="335" y="92" width="60" height="46" fill="#46301c"/>
  <rect x="337" y="94" width="56" height="42" fill="#596038"/>
  <rect x="342" y="98" width="10" height="13" fill="#b2a17c"/>
  <rect x="356" y="100" width="12" height="9" fill="#b2a17c"/>
  <rect x="372" y="97" width="9" height="12" fill="#b2a17c"/>
  <rect x="345" y="116" width="13" height="10" fill="#b2a17c"/>
  <rect x="363" y="114" width="9" height="13" fill="#8c7d5f"/>
  <rect x="378" y="118" width="10" height="9" fill="#b2a17c"/>
  <rect x="346" y="98" width="1" height="1" fill="#131114"/>
  <rect x="361" y="100" width="1" height="1" fill="#131114"/>
  <rect x="376" y="97" width="1" height="1" fill="#131114"/>
  <rect x="351" y="116" width="1" height="1" fill="#131114"/>
  <rect x="367" y="114" width="1" height="1" fill="#131114"/>
  <rect x="382" y="118" width="1" height="1" fill="#131114"/>

  <!-- wall pennant (one of the two red accents) -->
  <rect x="403" y="83" width="24" height="2" fill="#46301c"/>
  <polygon points="405,85 425,85 415,128" fill="#56271f"/>
  <polygon points="405,85 408,85 416,124 414,128" fill="#83392b"/>

  <!-- patched plaster rectangle that doesn't match -->
  <rect x="297" y="67" width="26" height="22" fill="#665a45"/>
  <rect x="298" y="68" width="24" height="20" fill="#b2a17c"/>

  <!-- water stain, top-right of rear wall -->
  <rect x="531" y="50" width="22" height="10" fill="#665a45"/>
  <rect x="536" y="58" width="14" height="6" fill="#665a45"/>
  <rect x="541" y="63" width="6" height="4" fill="#665a45"/>
  <rect x="538" y="54" width="8" height="5" fill="#3d383b"/>

  <!-- dark backing behind TV screen aperture (housing + screen prop live above) -->
  <rect x="471" y="59" width="49" height="29" fill="#131114"/>

  <!-- pendant lamps over tables A-E, halos on ceiling -->
  <g>
    <ellipse cx="309" cy="33" rx="8" ry="3" fill="#262227"/>
    <rect x="309" y="34" width="1" height="18" fill="#262227"/>
    <polygon points="306,52 314,52 318,62 302,62" fill="#3d383b"/>
    <rect x="302" y="62" width="16" height="1" fill="#b47c31"/>
    <rect x="308" y="61" width="3" height="2" fill="#dda549"/>

    <ellipse cx="439" cy="29" rx="8" ry="3" fill="#262227"/>
    <rect x="439" y="30" width="1" height="16" fill="#262227"/>
    <polygon points="435,46 443,46 447,55 431,55" fill="#3d383b"/>
    <rect x="431" y="55" width="16" height="1" fill="#b47c31"/>
    <rect x="437" y="54" width="3" height="2" fill="#dda549"/>

    <ellipse cx="396" cy="9" rx="9" ry="3" fill="#262227"/>
    <rect x="396" y="10" width="1" height="12" fill="#262227"/>
    <polygon points="391,22 401,22 405,33 387,33" fill="#3d383b"/>
    <rect x="387" y="33" width="18" height="1" fill="#b47c31"/>
    <rect x="394" y="32" width="3" height="2" fill="#dda549"/>

    <ellipse cx="239" cy="5" rx="9" ry="3" fill="#262227"/>
    <rect x="239" y="6" width="1" height="10" fill="#262227"/>
    <polygon points="234,16 244,16 248,27 230,27" fill="#3d383b"/>
    <rect x="230" y="27" width="18" height="1" fill="#b47c31"/>
    <rect x="237" y="26" width="3" height="2" fill="#dda549"/>

    <ellipse cx="509" cy="11" rx="9" ry="3" fill="#262227"/>
    <rect x="509" y="12" width="1" height="12" fill="#262227"/>
    <polygon points="504,24 514,24 518,35 500,35" fill="#3d383b"/>
    <rect x="500" y="35" width="18" height="1" fill="#b47c31"/>
    <rect x="507" y="34" width="3" height="2" fill="#dda549"/>
  </g>

  <!-- floor: worn soot_3, grout soot_2, edge shadow soot_1 -->
  <polygon points="80,207 560,207 640,360 0,360" fill="#5a524e"/>
  <g fill="#3d383b">
    <polygon points="76,214 564,214 564,215 76,215"/>
    <polygon points="71,224 569,224 569,225 71,225"/>
    <polygon points="64,238 576,238 576,239 64,239"/>
    <polygon points="53,258 587,258 587,259 53,259"/>
    <polygon points="40,284 600,284 600,285 40,285"/>
    <polygon points="23,316 617,316 617,317 23,317"/>
    <polygon points="4,352 636,352 636,353 4,353"/>
  </g>
  <polygon points="80,207 560,207 562,211 78,211" fill="#262227"/>
  <polygon points="80,207 84,211 10,360 0,360" fill="#262227"/>
  <polygon points="560,207 556,211 630,360 640,360" fill="#262227"/>
  <!-- table shadows -->
  <ellipse cx="310" cy="232" rx="26" ry="6" fill="#262227"/>
  <ellipse cx="440" cy="244" rx="28" ry="7" fill="#262227"/>
  <ellipse cx="397" cy="295" rx="34" ry="8" fill="#262227"/>
  <ellipse cx="240" cy="289" rx="32" ry="8" fill="#262227"/>
  <ellipse cx="510" cy="295" rx="34" ry="8" fill="#262227"/>
  <!-- counter shadow -->
  <polygon points="72,280 255,272 258,277 70,285" fill="#262227"/>
</svg>
